<svg width="39" height="24" viewBox="0 0 39 24" fill="none" xmlns="http://www.w3.org/2000/svg">
<path id="Vector" d="M1.77825 3.84871e-05C0.79647 3.84871e-05 0 0.796088 0 1.77829V22.2218C0 23.2038 0.796585 24 1.77825 24H36.4383C37.4201 24 38.2165 23.204 38.2165 22.2217V1.77825C38.2165 0.796203 37.42 0 36.4383 0H1.77821L1.77825 3.84871e-05ZM12.5314 2.88898C14.7129 2.88898 16.7163 3.64792 18.289 4.91564C16.9658 6.09955 15.9789 7.65499 15.492 9.41804H16.2552C16.7046 7.96359 17.521 6.66866 18.5971 5.64175C19.6732 6.66866 20.4896 7.96359 20.9391 9.41804H21.7142C21.2205 7.66428 20.2322 6.11812 18.91 4.94193C20.4857 3.65812 22.497 2.88894 24.6879 2.88894C29.7436 2.88894 33.8419 6.98773 33.8419 12.0442C33.8419 17.1007 29.7436 21.1995 24.6879 21.1995C22.4606 21.1995 20.4183 20.4045 18.8312 19.082C20.2509 17.8468 21.2976 16.191 21.7763 14.3073H21.0298C20.6048 15.8884 19.7493 17.2945 18.5971 18.3941C17.4448 17.2945 16.5906 15.8884 16.1655 14.3073H15.4549C15.9364 16.1637 16.9694 17.7964 18.3678 19.0199C16.7835 20.326 14.7493 21.1111 12.5314 21.1111C7.47572 21.1111 3.37738 17.032 3.37738 12C3.37738 6.96805 7.47572 2.88898 12.5314 2.88898ZM24.0012 9.32486C22.9012 9.32486 21.8312 10.2865 21.8312 12.092C21.8312 13.2892 22.4092 14.0792 23.5461 14.0792C23.8676 14.0793 24.3798 13.9479 24.3798 13.9479L24.5493 12.9017C24.5493 12.9017 24.0819 13.1381 23.7611 13.1381C23.0853 13.1381 22.8141 12.6184 22.8141 12.0598C22.8141 10.9265 23.3956 10.3029 24.043 10.3029C24.5284 10.3029 24.9183 10.5776 24.9183 10.5776L25.0736 9.56013C25.0736 9.56013 24.4964 9.32486 24.0012 9.32486ZM33.2484 9.41326L32.2918 9.41563L32.0863 10.6744C32.0863 10.6744 31.7267 10.1859 31.1644 10.1859C30.29 10.1859 29.5617 11.2246 29.5617 12.4192C29.5617 13.1903 29.9493 13.9467 30.744 13.9467C31.3156 13.9467 31.6325 13.5538 31.6325 13.5538L31.5907 13.8893H32.5199L33.2484 9.41326ZM5.84949 9.42637L5.08757 13.9132H6.00595L6.58639 10.5299L6.67237 13.9132H7.3292L8.55453 10.5299L8.01114 13.9132H8.98684L9.73925 9.42637H8.2297L7.2898 12.1791L7.24084 9.42641H5.84953L5.84949 9.42637ZM15.4442 9.71777C15.4235 9.7386 14.8889 12.8212 14.8889 13.1967C14.8889 13.7526 15.2005 14.0008 15.6389 13.9968C15.9531 13.9942 16.1963 13.9152 16.3089 13.8822C16.3207 13.879 16.3435 13.8726 16.3435 13.8726L16.4618 13.0701C16.3975 13.0701 16.3028 13.0976 16.2193 13.0976C15.892 13.0976 15.8557 12.9234 15.8766 12.7942L16.1405 11.1569H16.6385L16.7591 10.2695H16.2898L16.3853 9.71777H15.4442ZM26.545 10.1692C25.9039 10.1692 25.4128 10.3806 25.4128 10.3806L25.2766 11.2047C25.2766 11.2047 25.6823 11.0362 26.2954 11.0362C26.6434 11.0362 26.8984 11.0761 26.8984 11.3659C26.8984 11.5419 26.8674 11.6071 26.8674 11.6071C26.8674 11.6071 26.5922 11.5832 26.4649 11.5832C25.6566 11.5832 24.8073 11.9375 24.8073 13.0032C24.8073 13.8429 25.3648 14.035 25.7102 14.035C26.3697 14.035 26.6541 13.5969 26.6692 13.5956L26.6381 13.961H27.461L27.8288 11.3241C27.8289 10.2052 26.8759 10.1692 26.545 10.1692V10.1692ZM11.109 10.174C10.4657 10.174 9.9721 10.3854 9.9721 10.3854L9.83597 11.2094C9.83597 11.2094 10.243 11.041 10.8583 11.041C11.2076 11.041 11.4638 11.081 11.4638 11.3706C11.4638 11.5466 11.4327 11.6119 11.4327 11.6119C11.4327 11.6119 11.1567 11.588 11.0291 11.588C10.2176 11.588 9.36545 11.9417 9.36545 13.0068C9.36545 13.846 9.9241 14.0386 10.2707 14.0386C10.9326 14.0386 11.2181 13.6005 11.2333 13.5992L11.2022 13.9646H12.0286L12.3977 11.3289C12.3977 10.2106 11.4412 10.174 11.109 10.174V10.174ZM14.0278 10.174C13.337 10.174 12.6353 10.4529 12.6353 11.4053C12.6353 12.4845 13.8045 12.3754 13.8045 12.83C13.8045 13.1334 13.4782 13.1585 13.2265 13.1585C12.7908 13.1585 12.3991 13.0079 12.3977 13.0152L12.2723 13.8392C12.2948 13.8462 12.5374 13.955 13.3209 13.955C13.5312 13.955 14.7336 14.0085 14.7336 12.756C14.7336 11.5851 13.6206 11.8172 13.6206 11.3467C13.6206 11.1126 13.8013 11.0386 14.1329 11.0386C14.2646 11.0386 14.7719 11.0805 14.7719 11.0805L14.8889 10.248C14.8889 10.2481 14.5616 10.174 14.0278 10.174ZM18.3463 10.174C17.3863 10.1742 16.6755 11.2065 16.6755 12.3726C16.6755 13.7186 17.5661 14.0386 18.3248 14.0386C19.0252 14.0386 19.334 13.8822 19.334 13.8822L19.5012 12.9638C19.5012 12.9638 18.9684 13.1979 18.4872 13.1979C17.462 13.1979 17.6417 12.4347 17.6417 12.4347H19.5824C19.5824 12.4347 19.7078 11.818 19.7078 11.5665C19.7078 10.939 19.3946 10.174 18.3463 10.174ZM21.8228 10.2134C21.3904 10.2134 21.0692 10.795 21.0692 10.795L21.1552 10.2612H20.2571L19.6541 13.9467H20.6465C20.9275 12.3729 20.9789 11.0949 21.6497 11.3289C21.7671 10.7197 21.881 10.4844 22.0091 10.2265C22.0091 10.2265 21.949 10.2134 21.8228 10.2134ZM29.8638 10.2134C29.4313 10.2134 29.1102 10.795 29.1102 10.795L29.1962 10.2612H28.2981L27.695 13.9467H28.6863C28.9675 12.3729 29.0201 11.0949 29.6906 11.3289C29.8083 10.7197 29.9221 10.4844 30.0501 10.2265C30.0501 10.2265 29.9899 10.2134 29.8638 10.2134ZM18.3415 11.0052C18.8867 11.0052 18.787 11.6206 18.787 11.6704H17.7134C17.7134 11.6069 17.8149 11.0052 18.3415 11.0052ZM31.3149 11.0769C31.6619 11.0767 31.8403 11.3112 31.8403 11.8627C31.8403 12.3631 31.588 13.0319 31.0652 13.0319C30.7183 13.0319 30.5553 12.7454 30.5553 12.2962C30.5553 11.5618 30.8913 11.0769 31.3149 11.0769ZM26.5461 12.3308C26.6877 12.331 26.717 12.3448 26.7408 12.3512C26.7374 12.3506 26.7367 12.3512 26.7504 12.3535C26.7683 12.5177 26.6512 13.2875 26.0851 13.2875C25.7933 13.2875 25.7185 13.0554 25.7185 12.9184C25.7185 12.6513 25.8576 12.3308 26.5461 12.3308ZM11.1103 12.3344C11.271 12.3346 11.2886 12.3526 11.3157 12.3571C11.3336 12.5212 11.2161 13.2898 10.6481 13.2898C10.3551 13.2898 10.2791 13.0588 10.2791 12.922C10.2791 12.6551 10.4189 12.3344 11.1103 12.3344Z" fill="#A6A6A6"/>
</svg>
