<svg width="36" height="24" viewBox="0 0 36 24" fill="none" xmlns="http://www.w3.org/2000/svg">
<g id="fontisto:apple-pay" clip-path="url(#clip0_178_887)">
<path id="Vector" d="M33.6 24H2.4C1.76348 24 1.15303 23.7471 0.702944 23.2971C0.252856 22.847 0 22.2365 0 21.6L0 2.4C0 1.76348 0.252856 1.15303 0.702944 0.702944C1.15303 0.252856 1.76348 0 2.4 0L33.6 0C34.2365 0 34.847 0.252856 35.2971 0.702944C35.7471 1.15303 36 1.76348 36 2.4V21.6C36 22.2365 35.7471 22.847 35.2971 23.2971C34.847 23.7471 34.2365 24 33.6 24ZM27.793 16.89V18C27.952 18.022 28.135 18.035 28.321 18.035H28.337C29.731 18.035 30.392 17.493 30.962 15.888L33.476 8.838H32.022L30.336 14.284H30.306L28.62 8.838H27.124L29.549 15.551L29.419 15.959C29.3746 16.2415 29.2257 16.497 29.0017 16.6748C28.7778 16.8526 28.4952 16.9398 28.21 16.919H28.214C28.0738 16.9132 27.9337 16.9035 27.794 16.89H27.793ZM5.713 8.054H5.687C5.26599 8.06548 4.85513 8.18582 4.49447 8.40331C4.1338 8.62079 3.83563 8.928 3.629 9.295L3.623 9.307C2.779 10.759 3.316 12.981 4.25 14.334C4.688 14.974 5.168 15.6 5.801 15.6H5.835C6.1 15.583 6.345 15.514 6.566 15.403L6.555 15.408C6.822 15.274 7.136 15.195 7.468 15.192C7.789 15.194 8.093 15.272 8.36 15.408L8.349 15.403C8.564 15.515 8.817 15.583 9.086 15.589H9.115C9.82 15.576 10.262 14.929 10.653 14.359C10.932 13.955 11.163 13.49 11.325 12.993L11.336 12.955V12.945L11.318 12.937C10.9277 12.7619 10.5959 12.4784 10.3622 12.12C10.1285 11.7617 10.0028 11.3438 10 10.916V10.915C10.0035 10.5372 10.1019 10.1664 10.2863 9.83663C10.4706 9.50687 10.735 9.22879 11.055 9.028L11.064 9.023L11.082 9.011C10.8767 8.71304 10.6039 8.46773 10.2859 8.29502C9.96797 8.1223 9.61372 8.02705 9.252 8.017H9.143C8.7141 8.0387 8.29341 8.14294 7.904 8.324L7.925 8.315C7.74137 8.4036 7.5444 8.46137 7.342 8.486L7.333 8.487C7.11529 8.46406 6.90336 8.40278 6.707 8.306L6.718 8.311C6.40523 8.16186 6.06681 8.07394 5.721 8.052H5.713V8.054ZM23.826 9.87C24.706 9.87 25.192 10.282 25.192 11.029V11.538L23.406 11.644C21.731 11.745 20.846 12.424 20.846 13.607C20.8489 13.8916 20.9119 14.1724 21.0309 14.431C21.1498 14.6896 21.322 14.9202 21.5362 15.1077C21.7503 15.2951 22.0017 15.4353 22.2738 15.5189C22.5458 15.6025 22.8325 15.6278 23.115 15.593L23.105 15.594L23.17 15.595C24.039 15.595 24.799 15.127 25.211 14.428L25.217 14.417H25.247V15.519H26.572V10.933C26.572 9.603 25.511 8.745 23.869 8.745C22.355 8.745 21.229 9.613 21.184 10.808H22.474C22.5495 10.5141 22.7285 10.2572 22.9782 10.0847C23.2278 9.91223 23.5314 9.83562 23.833 9.869L23.827 9.868L23.826 9.87ZM14 6.304V15.52H15.431V12.368H17.408C17.8154 12.3897 18.2228 12.326 18.6041 12.1811C18.9854 12.0361 19.3323 11.8131 19.6224 11.5264C19.9126 11.2396 20.1396 10.8954 20.289 10.5158C20.4384 10.1362 20.5069 9.72959 20.49 9.322V9.328C20.5077 8.92479 20.4411 8.52232 20.2944 8.14632C20.1477 7.77033 19.9241 7.4291 19.638 7.14447C19.3519 6.85983 19.0095 6.63806 18.6327 6.49334C18.2559 6.34861 17.8531 6.28413 17.45 6.304H17.457H14ZM9.253 5.6C8.68131 5.65418 8.15242 5.92633 7.776 6.36L7.774 6.363C7.58671 6.57296 7.44326 6.81824 7.35207 7.08441C7.26088 7.35058 7.2238 7.6323 7.243 7.913V7.907C7.277 7.907 7.313 7.911 7.353 7.911C7.61946 7.89653 7.87988 7.8261 8.11731 7.70428C8.35473 7.58247 8.56384 7.41201 8.731 7.204L8.734 7.2C9.11159 6.75298 9.29835 6.17546 9.254 5.592V5.599L9.253 5.6ZM23.489 14.501C22.731 14.501 22.24 14.136 22.24 13.572C22.24 12.99 22.71 12.655 23.6 12.602L25.19 12.502V13.023C25.1812 13.2343 25.1292 13.4416 25.0372 13.6321C24.9452 13.8226 24.8152 13.9923 24.6552 14.1306C24.4952 14.269 24.3086 14.3732 24.1068 14.4367C23.905 14.5002 23.6924 14.5217 23.482 14.5L23.489 14.501ZM17.071 11.171H15.427V7.51H17.077C17.3311 7.4752 17.5898 7.49762 17.8342 7.5756C18.0785 7.65359 18.3024 7.78518 18.4894 7.96076C18.6763 8.13634 18.8217 8.35147 18.9149 8.59045C19.0081 8.82942 19.0468 9.08619 19.028 9.342V9.336C19.0462 9.59316 19.0067 9.85113 18.9123 10.091C18.8179 10.3309 18.671 10.5466 18.4824 10.7224C18.2938 10.8982 18.0682 11.0295 17.8223 11.1068C17.5764 11.184 17.3162 11.2053 17.061 11.169L17.07 11.17L17.071 11.171Z" fill="#A6A6A6"/>
</g>
<defs>
<clipPath id="clip0_178_887">
<rect width="36" height="24" fill="white"/>
</clipPath>
</defs>
</svg>
