<svg width="24" height="24" viewBox="0 0 24 24" fill="none" xmlns="http://www.w3.org/2000/svg">
<g clip-path="url(#clip0_275_14744)">
<path fill-rule="evenodd" clip-rule="evenodd" d="M12 1.6C10.6343 1.6 9.28188 1.869 8.02009 2.39165C6.75831 2.9143 5.61182 3.68036 4.64609 4.64609C3.68036 5.61182 2.9143 6.75831 2.39165 8.02009C1.869 9.28188 1.6 10.6343 1.6 12C1.6 13.3657 1.869 14.7181 2.39165 15.9799C2.9143 17.2417 3.68036 18.3882 4.64609 19.3539C5.61182 20.3196 6.75831 21.0857 8.02009 21.6083C9.03486 22.0287 10.1082 22.285 11.2 22.3692V14.4H8V12.8H11.2V10.4C11.2 9.33913 11.6214 8.32172 12.3716 7.57157C13.1217 6.82143 14.1391 6.4 15.2 6.4H16V8H15.2C14.5635 8 13.953 8.25286 13.5029 8.70294C13.0529 9.15303 12.8 9.76348 12.8 10.4V12.8H16V14.4H12.8V22.3692C15.2656 22.1791 17.593 21.1148 19.3539 19.3539C21.3043 17.4035 22.4 14.7583 22.4 12C22.4 9.24175 21.3043 6.59647 19.3539 4.64609C17.4035 2.69571 14.7583 1.6 12 1.6ZM7.4078 0.913446C8.86371 0.310389 10.4241 0 12 0C15.1826 4.76837e-08 18.2348 1.26428 20.4853 3.51472C22.7357 5.76516 24 8.8174 24 12C24 15.1826 22.7357 18.2348 20.4853 20.4853C18.2348 22.7357 15.1826 24 12 24C10.4241 24 8.86371 23.6896 7.4078 23.0866C5.95189 22.4835 4.62902 21.5996 3.51472 20.4853C2.40042 19.371 1.5165 18.0481 0.913446 16.5922C0.310389 15.1363 0 13.5759 0 12C0 10.4241 0.310389 8.86371 0.913446 7.4078C1.5165 5.95189 2.40042 4.62902 3.51472 3.51472C4.62902 2.40042 5.95189 1.5165 7.4078 0.913446Z" fill="#2C201D"/>
</g>
<defs>
<clipPath id="clip0_275_14744">
<rect width="24" height="24" fill="white"/>
</clipPath>
</defs>
</svg>
