<svg width="24" height="24" viewBox="0 0 24 24" fill="none" xmlns="http://www.w3.org/2000/svg">
<g clip-path="url(#clip0_275_14740)">
<path fill-rule="evenodd" clip-rule="evenodd" d="M7.2 1.6C5.71479 1.6 4.29041 2.19 3.2402 3.2402C2.19 4.29041 1.6 5.71479 1.6 7.2V16.8C1.6 18.2852 2.19 19.7096 3.2402 20.7598C4.29041 21.81 5.71479 22.4 7.2 22.4H16.8C18.2852 22.4 19.7096 21.81 20.7598 20.7598C21.81 19.7096 22.4 18.2852 22.4 16.8V7.2C22.4 5.71479 21.81 4.29041 20.7598 3.2402C19.7096 2.19 18.2852 1.6 16.8 1.6H7.2ZM2.10883 2.10883C3.45909 0.758569 5.29044 0 7.2 0H16.8C18.7096 0 20.5409 0.758569 21.8912 2.10883C23.2414 3.45909 24 5.29044 24 7.2V16.8C24 18.7096 23.2414 20.5409 21.8912 21.8912C20.5409 23.2414 18.7096 24 16.8 24H7.2C5.29044 24 3.45909 23.2414 2.10883 21.8912C0.758569 20.5409 0 18.7096 0 16.8V7.2C0 5.29044 0.758569 3.45909 2.10883 2.10883ZM19.2 6.4H17.6V4.8H19.2V6.4ZM12 8C10.9391 8 9.92172 8.42143 9.17157 9.17157C8.42143 9.92172 8 10.9391 8 12C8 13.0609 8.42143 14.0783 9.17157 14.8284C9.92172 15.5786 10.9391 16 12 16C13.0609 16 14.0783 15.5786 14.8284 14.8284C15.5786 14.0783 16 13.0609 16 12C16 10.9391 15.5786 9.92172 14.8284 9.17157C14.0783 8.42143 13.0609 8 12 8ZM8.0402 8.0402C9.09041 6.99 10.5148 6.4 12 6.4C13.4852 6.4 14.9096 6.99 15.9598 8.0402C17.01 9.09041 17.6 10.5148 17.6 12C17.6 13.4852 17.01 14.9096 15.9598 15.9598C14.9096 17.01 13.4852 17.6 12 17.6C10.5148 17.6 9.09041 17.01 8.0402 15.9598C6.99 14.9096 6.4 13.4852 6.4 12C6.4 10.5148 6.99 9.09041 8.0402 8.0402Z" fill="#2C201D"/>
</g>
<defs>
<clipPath id="clip0_275_14740">
<rect width="24" height="24" fill="white"/>
</clipPath>
</defs>
</svg>
