<svg width="39" height="24" viewBox="0 0 39 24" fill="none" xmlns="http://www.w3.org/2000/svg">
<path id="Vector" d="M1.74546 0C0.90137 0 0.216797 0.684382 0.216797 1.52866V22.4713C0.216797 23.3156 0.901714 24 1.74546 24H36.9047C37.7488 24 38.4334 23.3156 38.4334 22.4713V1.52866C38.4334 0.68442 37.7484 0 36.9047 0H1.74546ZM23.0416 7.15246C23.9718 7.15246 24.7172 7.35791 25.1925 7.54896L24.8677 9.59236L24.6527 9.48367C24.2099 9.29262 23.6411 9.10876 22.8565 9.1218C21.9173 9.1218 21.4831 9.54076 21.4831 9.93275C21.4777 10.3744 21.9905 10.6657 22.829 11.1019C24.2131 11.7749 24.8528 12.5909 24.8438 13.6636C24.8252 15.6209 23.1881 16.8858 20.6662 16.8858C19.5903 16.8739 18.5538 16.6461 17.9935 16.3829L18.3303 14.2715L18.6396 14.422C19.4275 14.774 19.9377 14.9164 20.8979 14.9164C21.5875 14.9164 22.3276 14.6277 22.3334 13.9956C22.3379 13.5829 22.0241 13.2886 21.0902 12.8264C20.1802 12.3753 18.9738 11.6197 18.9871 10.2647C19.0013 8.43183 20.6711 7.15246 23.0416 7.15246ZM3.59655 7.45223H7.46957C7.99112 7.47195 8.41219 7.63987 8.55756 8.20582L9.39236 12.5147C9.39248 12.5151 9.39221 12.5167 9.39236 12.5171L9.64314 13.8081L11.9946 7.45223H14.5385L10.7574 16.7556L8.21598 16.758L6.19291 9.25078C7.39666 9.8885 8.42147 10.6263 9.01498 11.6417C8.86196 11.3204 8.66033 10.9578 8.40233 10.6003C8.10187 10.1841 7.45299 9.64662 7.18177 9.41798C6.23667 8.62127 4.95317 7.97782 3.56671 7.63735L3.59655 7.45223ZM15.55 7.46297H18.0377L16.4815 16.752H13.9939L15.55 7.46297ZM29.6006 7.46297H31.4851L33.4581 16.752H31.1961C31.1961 16.752 30.9717 15.6848 30.8987 15.3595C30.5432 15.3595 28.0567 15.3559 27.7769 15.3559C27.6822 15.6074 27.2634 16.752 27.2634 16.752H24.7041L28.3239 8.23448C28.5802 7.62921 29.017 7.46297 29.6006 7.46297ZM29.7857 9.96138C29.6633 10.3069 29.4501 10.8649 29.4644 10.8404C29.4644 10.8404 28.6986 12.8826 28.4983 13.4128L30.5106 13.4116C30.3236 12.5259 30.1365 11.6401 29.9493 10.7544L29.7857 9.96145V9.96138Z" fill="#A6A6A6"/>
</svg>
